<?xml version="1.0" standalone="no"?>
<!DOCTYPE svg PUBLIC "-//W3C//DTD SVG 20010904//EN"
 "http://www.w3.org/TR/2001/REC-SVG-20010904/DTD/svg10.dtd">
<svg version="1.0" xmlns="http://www.w3.org/2000/svg"
 width="769.000000pt" height="247.000000pt" viewBox="0 0 769.000000 247.000000"
 preserveAspectRatio="xMidYMid meet">

<g transform="translate(0.000000,247.000000) scale(0.100000,-0.100000)"
fill="#000000" stroke="none">
<path d="M1002 2028 c-11 -24 -178 -387 -372 -808 -194 -421 -355 -771 -357
-777 -4 -10 26 -13 130 -13 l135 0 53 120 53 120 384 -2 384 -3 52 -115 52
-115 137 -3 136 -3 -22 48 c-12 27 -182 396 -377 820 -195 425 -358 773 -362
773 -4 0 -16 -19 -26 -42z m172 -833 l134 -300 -275 -3 c-152 -1 -278 0 -280
2 -3 2 57 142 133 310 76 169 141 303 146 298 4 -4 68 -143 142 -307z"/>
<path d="M6702 2059 c-184 -28 -335 -139 -394 -289 -16 -40 -22 -78 -22 -140
-2 -200 90 -308 372 -434 274 -124 363 -181 401 -258 26 -56 27 -90 0 -145
-51 -105 -225 -163 -387 -129 -95 20 -163 58 -226 127 l-51 57 -97 -70 -98
-70 18 -31 c32 -60 153 -170 222 -204 106 -52 179 -67 320 -67 145 0 218 16
325 72 174 92 269 274 238 457 -32 188 -169 310 -507 449 -180 75 -255 126
-276 191 -25 76 33 175 129 218 132 58 312 12 383 -98 13 -19 27 -35 31 -35 7
0 146 92 177 117 2 2 -8 28 -24 58 -86 165 -309 258 -534 224z"/>
<path d="M1980 1235 l0 -805 485 0 485 0 0 125 0 125 -360 0 -360 0 0 680 0
680 -125 0 -125 0 0 -805z"/>
<path d="M3150 1235 l0 -805 475 0 475 0 0 125 0 125 -350 0 -350 0 0 225 0
225 305 0 305 0 0 125 0 125 -305 0 -305 0 0 205 0 205 350 0 350 0 0 125 0
125 -475 0 -475 0 0 -805z"/>
<path d="M4344 1923 c40 -65 148 -239 241 -388 151 -243 166 -271 154 -290
-77 -123 -480 -778 -489 -794 -11 -21 -10 -21 132 -21 l143 1 184 299 c100
165 186 300 190 300 3 -1 89 -136 190 -300 l184 -300 144 0 143 0 -27 43 c-14
23 -131 211 -258 418 l-232 376 224 359 c123 197 231 371 239 387 l15 27 -143
0 -143 0 -165 -271 c-90 -149 -167 -272 -170 -274 -3 -1 -80 119 -171 269
l-166 271 -146 3 -146 3 73 -118z"/>
<path d="M5740 1235 l0 -805 125 0 125 0 0 805 0 805 -125 0 -125 0 0 -805z"/>
</g>
</svg>
